<?xml version="1.0" standalone="no"?>
<!DOCTYPE svg PUBLIC "-//W3C//DTD SVG 20010904//EN"
 "http://www.w3.org/TR/2001/REC-SVG-20010904/DTD/svg10.dtd">
<svg version="1.0" xmlns="http://www.w3.org/2000/svg"
 width="421.000000pt" height="180.000000pt" viewBox="0 0 421.000000 180.000000"
 preserveAspectRatio="xMidYMid meet">

<g transform="translate(0.000000,180.000000) scale(0.100000,-0.100000)"
fill="#000000" stroke="none">
<path d="M595 1516 c-302 -69 -509 -343 -492 -652 9 -159 70 -295 183 -408 72
-72 145 -117 246 -154 64 -23 88 -26 198 -26 110 0 134 3 198 26 101 37 174
82 246 154 72 72 117 145 154 246 23 64 26 88 26 198 0 110 -3 134 -26 198
-37 101 -82 174 -154 246 -117 117 -253 176 -419 182 -62 2 -123 -1 -160 -10z
m-137 -274 c6 -5 35 -60 62 -123 57 -131 83 -159 146 -159 53 0 65 12 157 165
l73 120 71 3 c109 4 103 25 103 -340 0 -358 2 -348 -82 -348 -90 0 -88 -4 -88
199 0 167 -1 179 -21 197 -30 27 -43 14 -126 -121 -40 -66 -79 -125 -87 -133
-27 -27 -56 -4 -92 74 -32 68 -37 74 -65 74 -41 0 -49 -27 -49 -159 0 -106 -7
-131 -36 -131 -7 0 -20 7 -28 16 -14 13 -16 57 -16 329 0 272 2 316 16 329 17
17 42 20 62 8z"/>
<path d="M1632 1138 c-9 -9 -12 -70 -12 -235 l0 -223 40 0 40 0 2 191 3 191
54 -132 c53 -131 53 -131 84 -128 30 3 34 9 84 128 l52 125 1 -187 0 -188 40
0 40 0 -2 233 -3 232 -46 3 -47 3 -30 -73 c-17 -40 -43 -103 -58 -140 -15 -38
-30 -65 -33 -62 -3 3 -31 65 -61 137 l-55 132 -40 3 c-23 2 -46 -3 -53 -10z"/>
<path d="M2712 1138 c-15 -15 -17 -410 -2 -439 10 -17 22 -19 121 -19 118 0
145 8 189 55 24 25 25 33 28 168 2 123 0 146 -16 176 -31 57 -70 71 -197 71
-73 0 -115 -4 -123 -12z m213 -40 c42 -33 55 -76 55 -183 0 -155 -30 -200
-133 -200 l-62 0 -3 190 c-1 104 0 195 2 202 9 23 109 16 141 -9z"/>
<path d="M2235 956 c-14 -14 -25 -37 -25 -51 0 -23 4 -25 40 -25 36 0 40 3 40
25 0 33 26 45 99 45 70 0 91 -15 91 -65 l0 -33 -114 -3 c-139 -5 -156 -15
-156 -90 0 -73 14 -79 186 -79 112 0 144 3 154 15 8 10 11 49 8 129 -4 154 0
150 -168 154 -127 4 -130 3 -155 -22z m243 -193 l-3 -58 -72 -3 c-92 -4 -113
7 -113 56 0 55 12 62 107 62 l84 0 -3 -57z"/>
<path d="M3255 971 c-39 -16 -57 -48 -62 -109 -7 -81 3 -129 34 -158 24 -22
34 -24 139 -24 106 0 114 1 143 26 30 25 31 28 31 116 0 100 -7 121 -50 143
-32 16 -199 20 -235 6z m169 -32 c35 -16 49 -58 44 -130 -6 -78 -27 -99 -101
-99 -77 0 -97 24 -97 112 0 77 10 105 43 118 31 12 82 12 111 -1z"/>
<path d="M3690 852 c0 -121 1 -130 23 -150 21 -20 34 -22 149 -22 95 0 128 3
137 14 8 9 11 57 9 147 l-3 134 -37 3 -37 3 -3 -133 -3 -133 -66 -3 c-46 -2
-69 1 -77 11 -7 8 -13 63 -14 133 l-3 119 -37 3 -38 3 0 -129z"/>
</g>
</svg>
